<svg xmlns="http://www.w3.org/2000/svg" xmlns:xlink="http://www.w3.org/1999/xlink" width="500" zoomAndPan="magnify" viewBox="0 0 375 374.999991" height="500" preserveAspectRatio="xMidYMid meet" version="1.0"><defs><g/><clipPath id="762431d1d9"><path d="M 135.277344 111 L 177 111 L 177 125 L 135.277344 125 Z M 135.277344 111 " clip-rule="nonzero"/></clipPath><clipPath id="5026d8232a"><path d="M 135.277344 133 L 239.527344 133 L 239.527344 191 L 135.277344 191 Z M 135.277344 133 " clip-rule="nonzero"/></clipPath><clipPath id="054cfae1b6"><path d="M 139.714844 144.257812 L 234.824219 144.257812 L 234.824219 180.570312 L 139.714844 180.570312 Z M 139.714844 144.257812 " clip-rule="nonzero"/></clipPath><clipPath id="89a2758786"><path d="M 168.671875 131.03125 L 206.171875 131.03125 L 206.171875 194.03125 L 168.671875 194.03125 Z M 168.671875 131.03125 " clip-rule="nonzero"/></clipPath></defs><g fill="#efefef" fill-opacity="1"><g transform="translate(49.176593, 236.927401)"><g><path d="M 15.75 -5.359375 C 16.65625 -5.359375 17.53125 -5.492188 18.375 -5.765625 C 19.226562 -6.046875 19.859375 -6.3125 20.265625 -6.5625 L 20.859375 -6.96875 L 23.390625 -1.921875 C 23.304688 -1.859375 23.1875 -1.773438 23.03125 -1.671875 C 22.882812 -1.566406 22.539062 -1.367188 22 -1.078125 C 21.46875 -0.796875 20.894531 -0.550781 20.28125 -0.34375 C 19.675781 -0.132812 18.878906 0.0507812 17.890625 0.21875 C 16.898438 0.382812 15.878906 0.46875 14.828125 0.46875 C 12.410156 0.46875 10.117188 -0.125 7.953125 -1.3125 C 5.785156 -2.5 4.035156 -4.132812 2.703125 -6.21875 C 1.378906 -8.300781 0.71875 -10.550781 0.71875 -12.96875 C 0.71875 -14.800781 1.109375 -16.554688 1.890625 -18.234375 C 2.671875 -19.921875 3.707031 -21.363281 5 -22.5625 C 6.289062 -23.757812 7.800781 -24.71875 9.53125 -25.4375 C 11.257812 -26.15625 13.023438 -26.515625 14.828125 -26.515625 C 16.515625 -26.515625 18.066406 -26.3125 19.484375 -25.90625 C 20.910156 -25.507812 21.914062 -25.113281 22.5 -24.71875 L 23.390625 -24.109375 L 20.859375 -19.0625 C 20.710938 -19.1875 20.492188 -19.335938 20.203125 -19.515625 C 19.910156 -19.703125 19.320312 -19.941406 18.4375 -20.234375 C 17.550781 -20.523438 16.65625 -20.671875 15.75 -20.671875 C 14.320312 -20.671875 13.035156 -20.4375 11.890625 -19.96875 C 10.753906 -19.507812 9.851562 -18.898438 9.1875 -18.140625 C 8.53125 -17.390625 8.03125 -16.578125 7.6875 -15.703125 C 7.34375 -14.828125 7.171875 -13.9375 7.171875 -13.03125 C 7.171875 -11.050781 7.910156 -9.273438 9.390625 -7.703125 C 10.867188 -6.140625 12.988281 -5.359375 15.75 -5.359375 Z M 15.75 -5.359375 "/></g></g></g><g fill="#efefef" fill-opacity="1"><g transform="translate(76.160455, 236.927401)"><g><path d="M 7.828125 -26.046875 L 7.828125 0 L 1.890625 0 L 1.890625 -26.046875 Z M 7.828125 -26.046875 "/></g></g></g><g fill="#efefef" fill-opacity="1"><g transform="translate(89.100781, 236.927401)"><g><path d="M 7.828125 -16.15625 L 7.828125 0 L 1.890625 0 L 1.890625 -26.046875 L 7.828125 -26.046875 L 18.1875 -9.875 L 18.25 -9.875 L 18.25 -26.046875 L 24.171875 -26.046875 L 24.171875 0 L 18.25 0 L 7.890625 -16.15625 Z M 7.828125 -16.15625 "/></g></g></g><g fill="#efefef" fill-opacity="1"><g transform="translate(118.388407, 236.927401)"><g><path d="M 16.796875 -26.046875 L 16.796875 -20.828125 L 7.828125 -20.828125 L 7.828125 -15.65625 L 16.40625 -15.65625 L 16.40625 -10.453125 L 7.828125 -10.453125 L 7.828125 -5.203125 L 16.796875 -5.203125 L 16.796875 0 L 1.890625 0 L 1.890625 -26.046875 Z M 16.796875 -26.046875 "/></g></g></g><g fill="#efefef" fill-opacity="1"><g transform="translate(139.912648, 236.927401)"><g><path d="M 23.421875 0 L 22.1875 -15.4375 L 22.03125 -15.4375 L 16.703125 -0.15625 L 13.15625 -0.15625 L 7.828125 -15.4375 L 7.671875 -15.4375 L 6.4375 0 L 0.5 0 L 2.84375 -26.046875 L 9.15625 -26.046875 L 14.921875 -11.015625 L 20.703125 -26.046875 L 27.015625 -26.046875 L 29.359375 0 Z M 23.421875 0 "/></g></g></g><g fill="#efefef" fill-opacity="1"><g transform="translate(172.987296, 236.927401)"><g><path d="M 15.125 -26.046875 L 25.625 0 L 19.25 0 L 17.328125 -5.203125 L 7.421875 -5.203125 L 5.484375 0 L -0.890625 0 L 9.625 -26.046875 Z M 15.3125 -10.421875 L 12.40625 -17.984375 L 12.34375 -17.984375 L 9.4375 -10.421875 Z M 15.3125 -10.421875 "/></g></g></g><g fill="#efefef" fill-opacity="1"><g transform="translate(200.949468, 236.927401)"><g><path d="M 11.484375 -26.515625 C 12.898438 -26.515625 14.28125 -26.304688 15.625 -25.890625 C 16.96875 -25.484375 17.96875 -25.082031 18.625 -24.6875 L 19.5625 -24.046875 L 17.171875 -19.3125 C 16.984375 -19.4375 16.71875 -19.597656 16.375 -19.796875 C 16.039062 -20.003906 15.410156 -20.273438 14.484375 -20.609375 C 13.554688 -20.941406 12.695312 -21.109375 11.90625 -21.109375 C 10.914062 -21.109375 10.148438 -20.898438 9.609375 -20.484375 C 9.078125 -20.066406 8.8125 -19.5 8.8125 -18.78125 C 8.8125 -18.425781 8.9375 -18.09375 9.1875 -17.78125 C 9.4375 -17.476562 9.863281 -17.148438 10.46875 -16.796875 C 11.082031 -16.453125 11.617188 -16.175781 12.078125 -15.96875 C 12.546875 -15.757812 13.265625 -15.445312 14.234375 -15.03125 C 15.921875 -14.3125 17.359375 -13.335938 18.546875 -12.109375 C 19.734375 -10.878906 20.328125 -9.484375 20.328125 -7.921875 C 20.328125 -6.429688 20.054688 -5.125 19.515625 -4 C 18.984375 -2.882812 18.25 -2.007812 17.3125 -1.375 C 16.375 -0.75 15.335938 -0.285156 14.203125 0.015625 C 13.066406 0.316406 11.835938 0.46875 10.515625 0.46875 C 9.378906 0.46875 8.265625 0.351562 7.171875 0.125 C 6.078125 -0.101562 5.160156 -0.390625 4.421875 -0.734375 C 3.679688 -1.085938 3.015625 -1.429688 2.421875 -1.765625 C 1.835938 -2.097656 1.410156 -2.382812 1.140625 -2.625 L 0.71875 -2.96875 L 3.6875 -7.953125 C 3.945312 -7.742188 4.296875 -7.472656 4.734375 -7.140625 C 5.171875 -6.816406 5.953125 -6.378906 7.078125 -5.828125 C 8.210938 -5.285156 9.207031 -5.015625 10.0625 -5.015625 C 12.570312 -5.015625 13.828125 -5.867188 13.828125 -7.578125 C 13.828125 -7.929688 13.734375 -8.257812 13.546875 -8.5625 C 13.367188 -8.875 13.054688 -9.179688 12.609375 -9.484375 C 12.160156 -9.785156 11.757812 -10.023438 11.40625 -10.203125 C 11.0625 -10.390625 10.492188 -10.664062 9.703125 -11.03125 C 8.910156 -11.394531 8.328125 -11.675781 7.953125 -11.875 C 6.378906 -12.644531 5.160156 -13.613281 4.296875 -14.78125 C 3.429688 -15.945312 3 -17.207031 3 -18.5625 C 3 -20.894531 3.859375 -22.800781 5.578125 -24.28125 C 7.304688 -25.769531 9.273438 -26.515625 11.484375 -26.515625 Z M 11.484375 -26.515625 "/></g></g></g><g fill="#efefef" fill-opacity="1"><g transform="translate(225.377086, 236.927401)"><g><path d="M 15.75 -5.359375 C 16.65625 -5.359375 17.53125 -5.492188 18.375 -5.765625 C 19.226562 -6.046875 19.859375 -6.3125 20.265625 -6.5625 L 20.859375 -6.96875 L 23.390625 -1.921875 C 23.304688 -1.859375 23.1875 -1.773438 23.03125 -1.671875 C 22.882812 -1.566406 22.539062 -1.367188 22 -1.078125 C 21.46875 -0.796875 20.894531 -0.550781 20.28125 -0.34375 C 19.675781 -0.132812 18.878906 0.0507812 17.890625 0.21875 C 16.898438 0.382812 15.878906 0.46875 14.828125 0.46875 C 12.410156 0.46875 10.117188 -0.125 7.953125 -1.3125 C 5.785156 -2.5 4.035156 -4.132812 2.703125 -6.21875 C 1.378906 -8.300781 0.71875 -10.550781 0.71875 -12.96875 C 0.71875 -14.800781 1.109375 -16.554688 1.890625 -18.234375 C 2.671875 -19.921875 3.707031 -21.363281 5 -22.5625 C 6.289062 -23.757812 7.800781 -24.71875 9.53125 -25.4375 C 11.257812 -26.15625 13.023438 -26.515625 14.828125 -26.515625 C 16.515625 -26.515625 18.066406 -26.3125 19.484375 -25.90625 C 20.910156 -25.507812 21.914062 -25.113281 22.5 -24.71875 L 23.390625 -24.109375 L 20.859375 -19.0625 C 20.710938 -19.1875 20.492188 -19.335938 20.203125 -19.515625 C 19.910156 -19.703125 19.320312 -19.941406 18.4375 -20.234375 C 17.550781 -20.523438 16.65625 -20.671875 15.75 -20.671875 C 14.320312 -20.671875 13.035156 -20.4375 11.890625 -19.96875 C 10.753906 -19.507812 9.851562 -18.898438 9.1875 -18.140625 C 8.53125 -17.390625 8.03125 -16.578125 7.6875 -15.703125 C 7.34375 -14.828125 7.171875 -13.9375 7.171875 -13.03125 C 7.171875 -11.050781 7.910156 -9.273438 9.390625 -7.703125 C 10.867188 -6.140625 12.988281 -5.359375 15.75 -5.359375 Z M 15.75 -5.359375 "/></g></g></g><g fill="#efefef" fill-opacity="1"><g transform="translate(252.360937, 236.927401)"><g><path d="M 0.71875 -13.03125 C 0.71875 -16.800781 2 -19.988281 4.5625 -22.59375 C 7.132812 -25.207031 10.234375 -26.515625 13.859375 -26.515625 C 17.492188 -26.515625 20.582031 -25.210938 23.125 -22.609375 C 25.675781 -20.015625 26.953125 -16.820312 26.953125 -13.03125 C 26.953125 -9.226562 25.695312 -6.023438 23.1875 -3.421875 C 20.6875 -0.828125 17.578125 0.46875 13.859375 0.46875 C 10.046875 0.46875 6.898438 -0.816406 4.421875 -3.390625 C 1.953125 -5.972656 0.71875 -9.1875 0.71875 -13.03125 Z M 7.140625 -13.03125 C 7.140625 -11.664062 7.347656 -10.421875 7.765625 -9.296875 C 8.179688 -8.171875 8.914062 -7.21875 9.96875 -6.4375 C 11.019531 -5.65625 12.316406 -5.265625 13.859375 -5.265625 C 16.066406 -5.265625 17.734375 -6.019531 18.859375 -7.53125 C 19.984375 -9.050781 20.546875 -10.882812 20.546875 -13.03125 C 20.546875 -15.15625 19.972656 -16.976562 18.828125 -18.5 C 17.679688 -20.03125 16.023438 -20.796875 13.859375 -20.796875 C 11.710938 -20.796875 10.054688 -20.03125 8.890625 -18.5 C 7.722656 -16.976562 7.140625 -15.15625 7.140625 -13.03125 Z M 7.140625 -13.03125 "/></g></g></g><g fill="#efefef" fill-opacity="1"><g transform="translate(283.25806, 236.927401)"><g><path d="M 1.890625 -26.046875 L 11.390625 -26.046875 C 14.046875 -26.046875 16.191406 -25.359375 17.828125 -23.984375 C 19.472656 -22.617188 20.296875 -20.628906 20.296875 -18.015625 C 20.296875 -15.410156 19.460938 -13.363281 17.796875 -11.875 C 16.140625 -10.394531 14.003906 -9.65625 11.390625 -9.65625 L 7.828125 -9.65625 L 7.828125 0 L 1.890625 0 Z M 7.828125 -14.390625 L 9.5 -14.390625 C 10.820312 -14.390625 11.910156 -14.65625 12.765625 -15.1875 C 13.617188 -15.726562 14.046875 -16.609375 14.046875 -17.828125 C 14.046875 -19.066406 13.617188 -19.957031 12.765625 -20.5 C 11.910156 -21.039062 10.820312 -21.3125 9.5 -21.3125 L 7.828125 -21.3125 Z M 7.828125 -14.390625 "/></g></g></g><g fill="#efefef" fill-opacity="1"><g transform="translate(307.496324, 236.927401)"><g><path d="M 16.796875 -26.046875 L 16.796875 -20.828125 L 7.828125 -20.828125 L 7.828125 -15.65625 L 16.40625 -15.65625 L 16.40625 -10.453125 L 7.828125 -10.453125 L 7.828125 -5.203125 L 16.796875 -5.203125 L 16.796875 0 L 1.890625 0 L 1.890625 -26.046875 Z M 16.796875 -26.046875 "/></g></g></g><g fill="#efefef" fill-opacity="1"><g transform="translate(189.098463, 275.927399)"><g/></g></g><path fill="#5c3c92" d="M 200.164062 111.074219 L 184.375 111.074219 L 177.234375 124.710938 L 192.160156 124.710938 Z M 200.164062 111.074219 " fill-opacity="1" fill-rule="nonzero"/><path fill="#5c3c92" d="M 223.523438 111.074219 L 207.949219 111.074219 L 200.8125 124.710938 L 215.519531 124.710938 Z M 223.523438 111.074219 " fill-opacity="1" fill-rule="nonzero"/><path fill="#5c3c92" d="M 238.878906 111.074219 L 230.660156 111.074219 L 224.386719 124.710938 L 238.878906 124.710938 Z M 238.878906 111.074219 " fill-opacity="1" fill-rule="nonzero"/><g clip-path="url(#762431d1d9)"><path fill="#5c3c92" d="M 176.371094 111.289062 L 135.277344 111.289062 L 135.277344 124.710938 L 169.015625 124.710938 Z M 176.371094 111.289062 " fill-opacity="1" fill-rule="nonzero"/></g><g clip-path="url(#5026d8232a)"><path fill="#5c3c92" d="M 135.492188 183.597656 C 135.492188 187.492188 138.953125 190.742188 143.28125 190.742188 L 231.742188 190.742188 C 236.066406 190.742188 239.527344 187.492188 239.527344 183.597656 L 239.527344 133.804688 L 135.710938 133.804688 C 135.492188 133.589844 135.492188 183.597656 135.492188 183.597656 Z M 174.207031 155.238281 C 174.207031 151.339844 177.234375 149.390625 181.128906 151.339844 L 197.566406 158.917969 C 201.460938 160.648438 201.460938 163.679688 197.566406 165.410156 L 181.128906 172.988281 C 177.234375 174.71875 174.207031 172.988281 174.207031 169.09375 Z M 174.207031 155.238281 " fill-opacity="1" fill-rule="nonzero"/></g><g clip-path="url(#054cfae1b6)"><path fill="#cb6ce6" d="M 139.714844 144.257812 L 234.898438 144.257812 L 234.898438 180.644531 L 139.714844 180.644531 Z M 139.714844 144.257812 " fill-opacity="1" fill-rule="nonzero"/></g><g clip-path="url(#89a2758786)"><path fill="#2b2b2b" d="M 189.53125 131.03125 L 169.53125 137.332031 C 169.03125 137.582031 168.671875 138.089844 168.671875 138.59375 L 168.671875 187.734375 C 168.671875 188.363281 169.0625 188.863281 169.6875 188.992188 L 189.6875 194.03125 L 189.921875 194.03125 C 190.171875 194.03125 190.414062 193.925781 190.664062 193.796875 C 190.914062 193.546875 191.171875 193.152344 191.171875 192.773438 L 191.171875 132.292969 C 191.171875 131.914062 190.914062 131.519531 190.664062 131.269531 C 190.289062 131.019531 189.90625 131.03125 189.53125 131.03125 Z M 193.671875 136.074219 L 193.671875 138.59375 L 203.671875 138.59375 L 203.671875 186.472656 L 193.671875 186.472656 L 193.671875 188.992188 L 204.921875 188.992188 C 205.609375 188.992188 206.171875 188.425781 206.171875 187.734375 L 206.171875 137.332031 C 206.171875 136.640625 205.609375 136.074219 204.921875 136.074219 Z M 186.171875 161.273438 C 186.921875 161.273438 187.421875 162.152344 187.421875 163.164062 C 187.421875 164.171875 186.921875 165.054688 186.171875 165.054688 C 185.417969 165.054688 184.921875 164.171875 184.921875 163.164062 C 184.921875 162.152344 185.417969 161.273438 186.171875 161.273438 Z M 186.171875 161.273438 " fill-opacity="1" fill-rule="nonzero"/></g></svg>